<svg width="656" height="320" viewBox="0 0 656 320" fill="none" xmlns="http://www.w3.org/2000/svg">
<path d="M153.107 0.40918C246.948 0.409218 303.745 64.6161 303.745 159.691C303.745 255.384 246.947 319.591 153.107 319.591C58.6503 319.591 0.000171163 255.384 0 159.691C0 64.6162 58.6502 0.409373 153.107 0.40918ZM505.361 0.40918C599.201 0.40918 656 64.6161 656 159.691C656 255.384 599.201 319.591 505.361 319.591C410.904 319.591 352.254 255.384 352.254 159.691C352.254 64.6162 410.904 0.409322 505.361 0.40918ZM152.732 100C118.916 100 107 118.787 107 159.676C107 200.933 118.916 219.72 152.732 219.721C186.227 219.721 197.822 200.933 197.822 159.676C197.822 118.787 186.227 100 152.732 100ZM504.733 100C470.917 100 459 118.787 459 159.676C459 200.933 470.917 219.721 504.733 219.721C538.228 219.721 549.822 200.933 549.822 159.676C549.822 118.787 538.228 100 504.733 100Z" fill="#F0F0F0"/>
</svg>
