<svg width="656" height="320" viewBox="0 0 656 320" fill="none" xmlns="http://www.w3.org/2000/svg">
<path d="M153.107 0.40918C246.948 0.409218 303.745 64.6161 303.745 159.691C303.745 255.384 246.947 319.591 153.107 319.591C58.6503 319.591 0.000171163 255.384 0 159.691C0 64.6162 58.6502 0.409378 153.107 0.40918ZM505.361 0.40918C599.201 0.40918 656 64.6161 656 159.691C656 255.384 599.201 319.591 505.361 319.591C410.904 319.591 352.254 255.384 352.254 159.691C352.254 64.6162 410.904 0.409322 505.361 0.40918ZM191.572 73.1621C157.756 73.1623 145.839 91.9488 145.839 132.838C145.839 174.095 157.756 192.883 191.572 192.883C225.067 192.883 236.661 174.096 236.661 132.838C236.661 91.9486 225.067 73.1621 191.572 73.1621ZM543.826 73.1621C510.009 73.1622 498.093 91.9487 498.093 132.838C498.093 174.095 510.009 192.883 543.826 192.883C577.321 192.883 588.915 174.095 588.915 132.838C588.915 91.9488 577.321 73.1623 543.826 73.1621Z" fill="#F0F0F0"/>
</svg>
